<svg xmlns="http://www.w3.org/2000/svg" viewBox="0 0 385.707 385.707" width="512" height="512"><g fill="#FFF"><path d="M382.83 17.991c-2.4-2-5.6-2.4-8.4-1.2l-365.2 160c-6 2.4-9.6 8.4-9.2 15.2.4 6.8 4.4 12.4 10.8 14.8l106.8 35.2v96c0 8.8 5.6 16.4 14 18.8 8.4 2.8 17.6-.4 22.8-7.6l44.8-64.8 94.8 81.6c2.8 2.4 6.4 3.6 10.4 3.6 2 0 3.6-.4 5.2-.8 5.6-2 9.6-6.4 10.4-12l65.6-330.8c.4-2.8-.8-6-2.8-8zm-191.6 249.6l-50 72.4c-1.6 2.4-3.6 2-4.8 1.6-.8 0-2.8-1.2-2.8-3.6v-101.6c0-3.6-2-6.4-5.6-7.6l-112.4-37.6 324.8-142-160 131.6c-3.6 2.8-4 8-1.2 11.2 1.6 2 4 2.8 6 2.8 1.6 0 3.6-.4 5.2-2l138.8-114-138 188.8zm113.2 86l-96-82.4 153.6-209.6-57.6 292z"/><path d="M158.83 198.391l-12.8 10.4c-3.6 2.8-4 8-1.2 11.2 1.6 2 4 2.8 6.4 2.8 1.6 0 3.6-.4 5.2-1.6l12.8-10.4c3.6-2.8 4-8 1.2-11.2-2.8-3.2-8-3.6-11.6-1.2z"/></g></svg>